<?xml version='1.0' encoding='utf-8'?>
<svg xmlns="http://www.w3.org/2000/svg" viewBox="0 0 16 16"> <defs> <radialGradient id="c" cx="8.902" cy="8.2976" r="7.5446" gradientTransform="matrix(1.0604 0 0 .19882 -1.4393 12.85)" gradientUnits="userSpaceOnUse"> <stop offset="0"/> <stop stop-opacity="0" offset="1"/> </radialGradient> <radialGradient id="b" cx="1.6848" cy="5.1875" r="5.9842" gradientTransform="matrix(.6931 3.175 -3.6848 .80437 19.201 -9.522)" gradientUnits="userSpaceOnUse"> <stop stop-color="#fff" offset="0"/> <stop stop-color="#ef2929" offset="1"/> </radialGradient> <radialGradient id="a" cx="11" cy="11.985" r="6.9741" gradientTransform="matrix(1.2221 -1.1471 1.0091 1.0706 -14.516 11.788)" gradientUnits="userSpaceOnUse"> <stop stop-color="#ef2929" offset="0"/> <stop stop-color="#c00" offset="1"/> </radialGradient> </defs> <path d="m16,14.5c0,.828-3.584,1.5-8,1.5s-8-.672-8-1.5 3.584-1.5 8-1.5 8,.672 8,1.5z" fill="url(#c)" fill-rule="evenodd" opacity=".4"/> <path d="m4.0104 1.5223h8.0041c1.377 0 2.4855 1.1085 2.4855 2.4855v7.9934c0 1.377-1.1085 2.4855-2.4855 2.4855h-8.0041c-1.377 0-2.4855-1.1085-2.4855-2.4855v-7.9934c0-1.377 1.1085-2.4855 2.4855-2.4855z" fill="url(#a)" stroke="#a40000" stroke-linecap="round"/> <path d="m4.0303 2.509h7.9709c0.83032 0 1.4988 0.66845 1.4988 1.4988v7.9934c0 0.83032-0.66845 1.4988-1.4988 1.4988h-7.9709c-0.83032 0-1.4988-0.66845-1.4988-1.4988v-7.9934c0-0.83032 0.66845-1.4988 1.4988-1.4988z" fill="none" opacity=".8" stroke="url(#b)" stroke-linecap="round"/> <path d="m7 10h2v2h-2v-2z" fill="#eeeeec"/> <path d="m7 12h2v1h-2v-1z" fill="#ef2929"/> <path d="m7 4h2v5h-2v-5z" fill="#eeeeec"/> <path d="m7 9h2v1h-2v-1z" fill="#ef2929"/> </svg>